<?xml version="1.0" encoding="UTF-8" standalone="no"?><svg xmlns="http://www.w3.org/2000/svg" xmlns:xlink="http://www.w3.org/1999/xlink" contentStyleType="text/css" height="1200px" preserveAspectRatio="none" style="width:653px;height:1200px;background:#FFFFFF;" version="1.1" viewBox="0 0 653 1200" width="653px" zoomAndPan="magnify"><defs/><g><text fill="#000000" font-family="sans-serif" font-size="14" font-weight="bold" lengthAdjust="spacing" textLength="123" x="261" y="27.9951">MRI Scheduling</text><line style="stroke:#181818;stroke-width:0.5;stroke-dasharray:5.0,5.0;" x1="34" x2="34" y1="118.5938" y2="1119.6406"/><line style="stroke:#181818;stroke-width:0.5;stroke-dasharray:5.0,5.0;" x1="205.5" x2="205.5" y1="118.5938" y2="1119.6406"/><line style="stroke:#181818;stroke-width:0.5;stroke-dasharray:5.0,5.0;" x1="405" x2="405" y1="118.5938" y2="1119.6406"/><line style="stroke:#181818;stroke-width:0.5;stroke-dasharray:5.0,5.0;" x1="498" x2="498" y1="118.5938" y2="1119.6406"/><line style="stroke:#181818;stroke-width:0.5;stroke-dasharray:5.0,5.0;" x1="604" x2="604" y1="118.5938" y2="1119.6406"/><text fill="#000000" font-family="sans-serif" font-size="14" lengthAdjust="spacing" textLength="53" x="5" y="115.292">Patient</text><ellipse cx="34.5" cy="50.7969" fill="#E2E2F0" rx="8" ry="8" style="stroke:#181818;stroke-width:0.5;"/><path d="M34.5,58.7969 L34.5,85.7969 M21.5,66.7969 L47.5,66.7969 M34.5,85.7969 L21.5,100.7969 M34.5,85.7969 L47.5,100.7969 " fill="none" style="stroke:#181818;stroke-width:0.5;"/><text fill="#000000" font-family="sans-serif" font-size="14" lengthAdjust="spacing" textLength="53" x="5" y="1131.6357">Patient</text><ellipse cx="34.5" cy="1143.4375" fill="#E2E2F0" rx="8" ry="8" style="stroke:#181818;stroke-width:0.5;"/><path d="M34.5,1151.4375 L34.5,1178.4375 M21.5,1159.4375 L47.5,1159.4375 M34.5,1178.4375 L21.5,1193.4375 M34.5,1178.4375 L47.5,1193.4375 " fill="none" style="stroke:#181818;stroke-width:0.5;"/><text fill="#000000" font-family="sans-serif" font-size="14" lengthAdjust="spacing" textLength="50" x="177.5" y="115.292">Doctor</text><ellipse cx="205.5" cy="50.7969" fill="#FFFFFF" rx="8" ry="8" style="stroke:#181818;stroke-width:0.5;"/><path d="M205.5,58.7969 L205.5,85.7969 M192.5,66.7969 L218.5,66.7969 M205.5,85.7969 L192.5,100.7969 M205.5,85.7969 L218.5,100.7969 " fill="none" style="stroke:#181818;stroke-width:0.5;"/><text fill="#000000" font-family="sans-serif" font-size="14" lengthAdjust="spacing" textLength="50" x="177.5" y="1131.6357">Doctor</text><ellipse cx="205.5" cy="1143.4375" fill="#FFFFFF" rx="8" ry="8" style="stroke:#181818;stroke-width:0.5;"/><path d="M205.5,1151.4375 L205.5,1178.4375 M192.5,1159.4375 L218.5,1159.4375 M205.5,1178.4375 L192.5,1193.4375 M205.5,1178.4375 L218.5,1193.4375 " fill="none" style="stroke:#181818;stroke-width:0.5;"/><rect fill="#E2E2F0" height="30.2969" rx="2.5" ry="2.5" style="stroke:#181818;stroke-width:0.5;" width="47" x="382" y="87.2969"/><text fill="#000000" font-family="sans-serif" font-size="14" lengthAdjust="spacing" textLength="33" x="389" y="107.292">HMO</text><rect fill="#E2E2F0" height="30.2969" rx="2.5" ry="2.5" style="stroke:#181818;stroke-width:0.5;" width="47" x="382" y="1118.6406"/><text fill="#000000" font-family="sans-serif" font-size="14" lengthAdjust="spacing" textLength="33" x="389" y="1138.6357">HMO</text><rect fill="#E2E2F0" height="30.2969" rx="2.5" ry="2.5" style="stroke:#181818;stroke-width:0.5;" width="118" x="439" y="87.2969"/><text fill="#000000" font-family="sans-serif" font-size="14" lengthAdjust="spacing" textLength="104" x="446" y="107.292">Private insurer</text><rect fill="#E2E2F0" height="30.2969" rx="2.5" ry="2.5" style="stroke:#181818;stroke-width:0.5;" width="118" x="439" y="1118.6406"/><text fill="#000000" font-family="sans-serif" font-size="14" lengthAdjust="spacing" textLength="104" x="446" y="1138.6357">Private insurer</text><rect fill="#E2E2F0" height="30.2969" rx="2.5" ry="2.5" style="stroke:#181818;stroke-width:0.5;" width="74" x="567" y="87.2969"/><text fill="#000000" font-family="sans-serif" font-size="14" lengthAdjust="spacing" textLength="60" x="574" y="107.292">Provider</text><rect fill="#E2E2F0" height="30.2969" rx="2.5" ry="2.5" style="stroke:#181818;stroke-width:0.5;" width="74" x="567" y="1118.6406"/><text fill="#000000" font-family="sans-serif" font-size="14" lengthAdjust="spacing" textLength="60" x="574" y="1138.6357">Provider</text><rect fill="#EEEEEE" height="3" style="stroke:#EEEEEE;stroke-width:1.0;" width="646" x="0" y="149.1602"/><line style="stroke:#000000;stroke-width:1.0;" x1="0" x2="646" y1="149.1602" y2="149.1602"/><line style="stroke:#000000;stroke-width:1.0;" x1="0" x2="646" y1="152.1602" y2="152.1602"/><rect fill="#EEEEEE" height="23.1328" style="stroke:#000000;stroke-width:2.0;" width="160" x="243" y="138.5938"/><text fill="#000000" font-family="sans-serif" font-size="13" font-weight="bold" lengthAdjust="spacing" textLength="146" x="249" y="154.6606">Initial appointment</text><polygon fill="#181818" points="193.5,188.8594,203.5,192.8594,193.5,196.8594,197.5,192.8594" style="stroke:#181818;stroke-width:1.0;"/><line style="stroke:#181818;stroke-width:1.0;" x1="34.5" x2="199.5" y1="192.8594" y2="192.8594"/><text fill="#000000" font-family="sans-serif" font-size="13" lengthAdjust="spacing" textLength="147" x="41.5" y="187.7935">goes for a consultation</text><polygon fill="#181818" points="45.5,233.125,35.5,237.125,45.5,241.125,41.5,237.125" style="stroke:#181818;stroke-width:1.0;"/><line style="stroke:#181818;stroke-width:1.0;" x1="39.5" x2="204.5" y1="237.125" y2="237.125"/><text fill="#000000" font-family="sans-serif" font-size="13" lengthAdjust="spacing" textLength="85" x="51.5" y="216.9263">gives referral</text><text fill="#000000" font-family="sans-serif" font-size="13" font-style="italic" lengthAdjust="spacing" textLength="101" x="51.5" y="232.0591">ServiceRequest</text><rect fill="#EEEEEE" height="3" style="stroke:#EEEEEE;stroke-width:1.0;" width="646" x="0" y="265.6914"/><line style="stroke:#000000;stroke-width:1.0;" x1="0" x2="646" y1="265.6914" y2="265.6914"/><line style="stroke:#000000;stroke-width:1.0;" x1="0" x2="646" y1="268.6914" y2="268.6914"/><rect fill="#EEEEEE" height="23.1328" style="stroke:#000000;stroke-width:2.0;" width="196" x="225" y="255.125"/><text fill="#000000" font-family="sans-serif" font-size="13" font-weight="bold" lengthAdjust="spacing" textLength="182" x="231" y="271.1919">Appointment scheduling</text><polygon fill="#181818" points="592,320.5234,602,324.5234,592,328.5234,596,324.5234" style="stroke:#181818;stroke-width:1.0;"/><line style="stroke:#181818;stroke-width:1.0;" x1="34.5" x2="598" y1="324.5234" y2="324.5234"/><text fill="#000000" font-family="sans-serif" font-size="13" lengthAdjust="spacing" textLength="365" x="41.5" y="304.3247">check appointment dates (with 1..* providers), can email</text><text fill="#000000" font-family="sans-serif" font-size="13" font-style="italic" lengthAdjust="spacing" textLength="95" x="41.5" y="319.4575">Schedule+Slot</text><polygon fill="#181818" points="45.5,364.7891,35.5,368.7891,45.5,372.7891,41.5,368.7891" style="stroke:#181818;stroke-width:1.0;"/><line style="stroke:#181818;stroke-width:1.0;" x1="39.5" x2="603" y1="368.7891" y2="368.7891"/><text fill="#000000" font-family="sans-serif" font-size="13" lengthAdjust="spacing" textLength="418" x="51.5" y="348.5903">return possible dates (1..* dates), by phone, can take a few days</text><text fill="#000000" font-family="sans-serif" font-size="13" font-style="italic" lengthAdjust="spacing" textLength="95" x="51.5" y="363.7231">Schedule+Slot</text><polygon fill="#181818" points="592,409.0547,602,413.0547,592,417.0547,596,413.0547" style="stroke:#181818;stroke-width:1.0;"/><line style="stroke:#181818;stroke-width:1.0;" x1="34.5" x2="598" y1="413.0547" y2="413.0547"/><text fill="#000000" font-family="sans-serif" font-size="13" lengthAdjust="spacing" textLength="135" x="41.5" y="392.856">request appointment</text><text fill="#000000" font-family="sans-serif" font-size="13" font-style="italic" lengthAdjust="spacing" textLength="84" x="41.5" y="407.9888">Appointment</text><polygon fill="#181818" points="45.5,453.3203,35.5,457.3203,45.5,461.3203,41.5,457.3203" style="stroke:#181818;stroke-width:1.0;"/><line style="stroke:#181818;stroke-width:1.0;" x1="39.5" x2="603" y1="457.3203" y2="457.3203"/><text fill="#000000" font-family="sans-serif" font-size="13" lengthAdjust="spacing" textLength="135" x="51.5" y="437.1216">confirm appointment</text><text fill="#000000" font-family="sans-serif" font-size="13" font-style="italic" lengthAdjust="spacing" textLength="147" x="51.5" y="452.2544">AppointmentResponse</text><rect fill="#EEEEEE" height="3" style="stroke:#EEEEEE;stroke-width:1.0;" width="646" x="0" y="485.8867"/><line style="stroke:#000000;stroke-width:1.0;" x1="0" x2="646" y1="485.8867" y2="485.8867"/><line style="stroke:#000000;stroke-width:1.0;" x1="0" x2="646" y1="488.8867" y2="488.8867"/><rect fill="#EEEEEE" height="23.1328" style="stroke:#000000;stroke-width:2.0;" width="77" x="284.5" y="475.3203"/><text fill="#000000" font-family="sans-serif" font-size="13" font-weight="bold" lengthAdjust="spacing" textLength="63" x="290.5" y="491.3872">Form 17</text><polygon fill="#181818" points="393.5,540.7188,403.5,544.7188,393.5,548.7188,397.5,544.7188" style="stroke:#181818;stroke-width:1.0;"/><line style="stroke:#181818;stroke-width:1.0;" x1="34.5" x2="399.5" y1="544.7188" y2="544.7188"/><text fill="#000000" font-family="sans-serif" font-size="13" lengthAdjust="spacing" textLength="193" x="41.5" y="524.52">request form 17 using referral</text><text fill="#000000" font-family="sans-serif" font-size="13" font-style="italic" lengthAdjust="spacing" textLength="183" x="41.5" y="539.6528">Claim.use=preauthorization</text><polygon fill="#181818" points="45.5,584.9844,35.5,588.9844,45.5,592.9844,41.5,588.9844" style="stroke:#181818;stroke-width:1.0;"/><line style="stroke:#181818;stroke-width:1.0;" x1="39.5" x2="404.5" y1="588.9844" y2="588.9844"/><text fill="#000000" font-family="sans-serif" font-size="13" lengthAdjust="spacing" textLength="347" x="51.5" y="568.7856">filled form 17 with all details (such as procedure code)</text><text fill="#000000" font-family="sans-serif" font-size="13" font-style="italic" lengthAdjust="spacing" textLength="101" x="51.5" y="583.9185">ClaimResponse</text><rect fill="#EEEEEE" height="3" style="stroke:#EEEEEE;stroke-width:1.0;" width="646" x="0" y="617.5508"/><line style="stroke:#000000;stroke-width:1.0;" x1="0" x2="646" y1="617.5508" y2="617.5508"/><line style="stroke:#000000;stroke-width:1.0;" x1="0" x2="646" y1="620.5508" y2="620.5508"/><rect fill="#EEEEEE" height="23.1328" style="stroke:#000000;stroke-width:2.0;" width="289" x="178.5" y="606.9844"/><text fill="#000000" font-family="sans-serif" font-size="13" font-weight="bold" lengthAdjust="spacing" textLength="275" x="184.5" y="623.0513">Appointment cancellation (optional)</text><polygon fill="#181818" points="592,672.3828,602,676.3828,592,680.3828,596,676.3828" style="stroke:#181818;stroke-width:1.0;"/><line style="stroke:#181818;stroke-width:1.0;" x1="34.5" x2="598" y1="676.3828" y2="676.3828"/><text fill="#000000" font-family="sans-serif" font-size="13" lengthAdjust="spacing" textLength="203" x="41.5" y="656.1841">notify appointment cancellation</text><text fill="#000000" font-family="sans-serif" font-size="13" font-style="italic" lengthAdjust="spacing" textLength="84" x="41.5" y="671.3169">Appointment</text><polygon fill="#181818" points="45.5,716.6484,35.5,720.6484,45.5,724.6484,41.5,720.6484" style="stroke:#181818;stroke-width:1.0;"/><line style="stroke:#181818;stroke-width:1.0;" x1="39.5" x2="603" y1="720.6484" y2="720.6484"/><text fill="#000000" font-family="sans-serif" font-size="13" lengthAdjust="spacing" textLength="215" x="51.5" y="700.4497">confirm appointment cancellation</text><text fill="#000000" font-family="sans-serif" font-size="13" font-style="italic" lengthAdjust="spacing" textLength="84" x="51.5" y="715.5825">Appointment</text><rect fill="#EEEEEE" height="3" style="stroke:#EEEEEE;stroke-width:1.0;" width="646" x="0" y="749.2148"/><line style="stroke:#000000;stroke-width:1.0;" x1="0" x2="646" y1="749.2148" y2="749.2148"/><line style="stroke:#000000;stroke-width:1.0;" x1="0" x2="646" y1="752.2148" y2="752.2148"/><rect fill="#EEEEEE" height="23.1328" style="stroke:#000000;stroke-width:2.0;" width="310" x="168" y="738.6484"/><text fill="#000000" font-family="sans-serif" font-size="13" font-weight="bold" lengthAdjust="spacing" textLength="296" x="174" y="754.7153">Appointment postponement (optional)</text><polygon fill="#181818" points="592,804.0469,602,808.0469,592,812.0469,596,808.0469" style="stroke:#181818;stroke-width:1.0;"/><line style="stroke:#181818;stroke-width:1.0;" x1="34.5" x2="598" y1="808.0469" y2="808.0469"/><text fill="#000000" font-family="sans-serif" font-size="13" lengthAdjust="spacing" textLength="233" x="41.5" y="787.8481">request appointment postponement</text><text fill="#000000" font-family="sans-serif" font-size="13" lengthAdjust="spacing" textLength="4" x="41.5" y="802.981"> </text><text fill="#000000" font-family="sans-serif" font-size="13" font-style="italic" lengthAdjust="spacing" textLength="84" x="45.5" y="802.981">Appointment</text><polygon fill="#181818" points="45.5,848.3125,35.5,852.3125,45.5,856.3125,41.5,852.3125" style="stroke:#181818;stroke-width:1.0;"/><line style="stroke:#181818;stroke-width:1.0;" x1="39.5" x2="603" y1="852.3125" y2="852.3125"/><text fill="#000000" font-family="sans-serif" font-size="13" lengthAdjust="spacing" textLength="166" x="51.5" y="832.1138">return possible new dates</text><text fill="#000000" font-family="sans-serif" font-size="13" lengthAdjust="spacing" textLength="4" x="51.5" y="847.2466"> </text><text fill="#000000" font-family="sans-serif" font-size="13" font-style="italic" lengthAdjust="spacing" textLength="95" x="55.5" y="847.2466">Schedule+Slot</text><polygon fill="#181818" points="592,892.5781,602,896.5781,592,900.5781,596,896.5781" style="stroke:#181818;stroke-width:1.0;"/><line style="stroke:#181818;stroke-width:1.0;" x1="34.5" x2="598" y1="896.5781" y2="896.5781"/><text fill="#000000" font-family="sans-serif" font-size="13" lengthAdjust="spacing" textLength="113" x="41.5" y="876.3794">request new date</text><text fill="#000000" font-family="sans-serif" font-size="13" lengthAdjust="spacing" textLength="4" x="41.5" y="891.5122"> </text><text fill="#000000" font-family="sans-serif" font-size="13" font-style="italic" lengthAdjust="spacing" textLength="84" x="45.5" y="891.5122">Appointment</text><polygon fill="#181818" points="45.5,936.8438,35.5,940.8438,45.5,944.8438,41.5,940.8438" style="stroke:#181818;stroke-width:1.0;"/><line style="stroke:#181818;stroke-width:1.0;" x1="39.5" x2="603" y1="940.8438" y2="940.8438"/><text fill="#000000" font-family="sans-serif" font-size="13" lengthAdjust="spacing" textLength="135" x="51.5" y="920.645">confirm appointment</text><text fill="#000000" font-family="sans-serif" font-size="13" lengthAdjust="spacing" textLength="4" x="51.5" y="935.7778"> </text><text fill="#000000" font-family="sans-serif" font-size="13" font-style="italic" lengthAdjust="spacing" textLength="147" x="55.5" y="935.7778">AppointmentResponse</text><rect fill="#EEEEEE" height="3" style="stroke:#EEEEEE;stroke-width:1.0;" width="646" x="0" y="969.4102"/><line style="stroke:#000000;stroke-width:1.0;" x1="0" x2="646" y1="969.4102" y2="969.4102"/><line style="stroke:#000000;stroke-width:1.0;" x1="0" x2="646" y1="972.4102" y2="972.4102"/><rect fill="#EEEEEE" height="23.1328" style="stroke:#000000;stroke-width:2.0;" width="147" x="249.5" y="958.8438"/><text fill="#000000" font-family="sans-serif" font-size="13" font-weight="bold" lengthAdjust="spacing" textLength="133" x="255.5" y="974.9106">Procedure report</text><line style="stroke:#181818;stroke-width:1.0;" x1="602" x2="592" y1="1013.1094" y2="1009.1094"/><line style="stroke:#181818;stroke-width:1.0;" x1="602" x2="592" y1="1013.1094" y2="1017.1094"/><line style="stroke:#181818;stroke-width:1.0;stroke-dasharray:2.0,2.0;" x1="34.5" x2="603" y1="1013.1094" y2="1013.1094"/><text fill="#000000" font-family="sans-serif" font-size="13" font-style="italic" lengthAdjust="spacing" textLength="151" x="41.5" y="1008.0435">get the procedure done</text><polygon fill="#181818" points="216.5,1053.375,206.5,1057.375,216.5,1061.375,212.5,1057.375" style="stroke:#181818;stroke-width:1.0;"/><line style="stroke:#181818;stroke-width:1.0;" x1="210.5" x2="603" y1="1057.375" y2="1057.375"/><text fill="#000000" font-family="sans-serif" font-size="13" lengthAdjust="spacing" textLength="304" x="222.5" y="1037.1763">send report (if provider and HMO are the same)</text><text fill="#000000" font-family="sans-serif" font-size="13" font-style="italic" lengthAdjust="spacing" textLength="181" x="222.5" y="1052.3091">Procedure/DiagnosticReport</text><polygon fill="#181818" points="45.5,1097.6406,35.5,1101.6406,45.5,1105.6406,41.5,1101.6406" style="stroke:#181818;stroke-width:1.0;"/><line style="stroke:#181818;stroke-width:1.0;" x1="39.5" x2="603" y1="1101.6406" y2="1101.6406"/><text fill="#000000" font-family="sans-serif" font-size="13" lengthAdjust="spacing" textLength="298" x="51.5" y="1081.4419">send report (if provider and HMO are different)</text><text fill="#000000" font-family="sans-serif" font-size="13" font-style="italic" lengthAdjust="spacing" textLength="181" x="51.5" y="1096.5747">Procedure/DiagnosticReport</text><!--MD5=[a6941a9e221437ff85ef5b6057f3e9df]
@startuml
'editable with https://planttext.com
'see documentation at https://plantuml.com/sequence-diagram

title "MRI Scheduling"

actor Patient
actor Doctor #white
participant HMO
participant "Private insurer"
participant Provider

== Initial appointment==
Patient -> Doctor: goes for a consultation
Doctor -> Patient: gives referral\n//ServiceRequest//

== Appointment scheduling==
Patient -> Provider: check appointment dates (with 1..* providers), can email\n//Schedule+Slot//
Provider -> Patient: return possible dates (1..* dates), by phone, can take a few days\n//Schedule+Slot//
Patient -> Provider: request appointment\n//Appointment//
Provider -> Patient: confirm appointment\n//AppointmentResponse//

== Form 17==
Patient -> HMO: request form 17 using referral\n//Claim.use=preauthorization//
HMO -> Patient: filled form 17 with all details (such as procedure code)\n//ClaimResponse//

== Appointment cancellation (optional)==
Patient -> Provider: notify appointment cancellation\n//Appointment//
Provider -> Patient: confirm appointment cancellation\n//Appointment//

== Appointment postponement (optional)==
Patient -> Provider: request appointment postponement\n //Appointment//
Provider -> Patient: return possible new dates\n //Schedule+Slot//
Patient -> Provider: request new date\n //Appointment//
Provider -> Patient: confirm appointment\n //AppointmentResponse//

== Procedure report==
Patient - ->> Provider: //get the procedure done//
Provider -> Doctor: send report (if provider and HMO are the same)\n//Procedure/DiagnosticReport//
Provider -> Patient: send report (if provider and HMO are different)\n//Procedure/DiagnosticReport//
@enduml

@startuml

title "MRI Scheduling"

actor Patient
actor Doctor #white
participant HMO
participant "Private insurer"
participant Provider

== Initial appointment==
Patient -> Doctor: goes for a consultation
Doctor -> Patient: gives referral\n//ServiceRequest//

== Appointment scheduling==
Patient -> Provider: check appointment dates (with 1..* providers), can email\n//Schedule+Slot//
Provider -> Patient: return possible dates (1..* dates), by phone, can take a few days\n//Schedule+Slot//
Patient -> Provider: request appointment\n//Appointment//
Provider -> Patient: confirm appointment\n//AppointmentResponse//

== Form 17==
Patient -> HMO: request form 17 using referral\n//Claim.use=preauthorization//
HMO -> Patient: filled form 17 with all details (such as procedure code)\n//ClaimResponse//

== Appointment cancellation (optional)==
Patient -> Provider: notify appointment cancellation\n//Appointment//
Provider -> Patient: confirm appointment cancellation\n//Appointment//

== Appointment postponement (optional)==
Patient -> Provider: request appointment postponement\n //Appointment//
Provider -> Patient: return possible new dates\n //Schedule+Slot//
Patient -> Provider: request new date\n //Appointment//
Provider -> Patient: confirm appointment\n //AppointmentResponse//

== Procedure report==
Patient - ->> Provider: //get the procedure done//
Provider -> Doctor: send report (if provider and HMO are the same)\n//Procedure/DiagnosticReport//
Provider -> Patient: send report (if provider and HMO are different)\n//Procedure/DiagnosticReport//
@enduml

PlantUML version 1.2022.13beta5(Unknown compile time)
(GPL source distribution)
Java Runtime: Java(TM) SE Runtime Environment
JVM: Java HotSpot(TM) 64-Bit Server VM
Default Encoding: UTF-8
Language: en
Country: US
--></g></svg>