<?xml version="1.0" encoding="UTF-8" standalone="no"?><svg xmlns="http://www.w3.org/2000/svg" xmlns:xlink="http://www.w3.org/1999/xlink" contentStyleType="text/css" height="1099px" preserveAspectRatio="none" style="width:668px;height:1099px;background:#FFFFFF;" version="1.1" viewBox="0 0 668 1099" width="668px" zoomAndPan="magnify"><defs/><g><text fill="#000000" font-family="sans-serif" font-size="14" font-weight="bold" lengthAdjust="spacing" textLength="123" x="268.5" y="27.9951">MRI Scheduling</text><rect fill="none" height="105.6641" style="stroke:#000000;stroke-width:1.5;" width="572" x="10" y="603.9844"/><line style="stroke:#181818;stroke-width:0.5;stroke-dasharray:5.0,5.0;" x1="49" x2="49" y1="118.5938" y2="1019.1094"/><line style="stroke:#181818;stroke-width:0.5;stroke-dasharray:5.0,5.0;" x1="220.5" x2="220.5" y1="118.5938" y2="1019.1094"/><line style="stroke:#181818;stroke-width:0.5;stroke-dasharray:5.0,5.0;" x1="420" x2="420" y1="118.5938" y2="1019.1094"/><line style="stroke:#181818;stroke-width:0.5;stroke-dasharray:5.0,5.0;" x1="513" x2="513" y1="118.5938" y2="1019.1094"/><line style="stroke:#181818;stroke-width:0.5;stroke-dasharray:5.0,5.0;" x1="619" x2="619" y1="118.5938" y2="1019.1094"/><text fill="#000000" font-family="sans-serif" font-size="14" lengthAdjust="spacing" textLength="53" x="20" y="115.292">Patient</text><ellipse cx="49.5" cy="50.7969" fill="#E2E2F0" rx="8" ry="8" style="stroke:#181818;stroke-width:0.5;"/><path d="M49.5,58.7969 L49.5,85.7969 M36.5,66.7969 L62.5,66.7969 M49.5,85.7969 L36.5,100.7969 M49.5,85.7969 L62.5,100.7969 " fill="none" style="stroke:#181818;stroke-width:0.5;"/><text fill="#000000" font-family="sans-serif" font-size="14" lengthAdjust="spacing" textLength="53" x="20" y="1031.1045">Patient</text><ellipse cx="49.5" cy="1042.9063" fill="#E2E2F0" rx="8" ry="8" style="stroke:#181818;stroke-width:0.5;"/><path d="M49.5,1050.9063 L49.5,1077.9063 M36.5,1058.9063 L62.5,1058.9063 M49.5,1077.9063 L36.5,1092.9063 M49.5,1077.9063 L62.5,1092.9063 " fill="none" style="stroke:#181818;stroke-width:0.5;"/><text fill="#000000" font-family="sans-serif" font-size="14" lengthAdjust="spacing" textLength="50" x="192.5" y="115.292">Doctor</text><ellipse cx="220.5" cy="50.7969" fill="#FFFFFF" rx="8" ry="8" style="stroke:#181818;stroke-width:0.5;"/><path d="M220.5,58.7969 L220.5,85.7969 M207.5,66.7969 L233.5,66.7969 M220.5,85.7969 L207.5,100.7969 M220.5,85.7969 L233.5,100.7969 " fill="none" style="stroke:#181818;stroke-width:0.5;"/><text fill="#000000" font-family="sans-serif" font-size="14" lengthAdjust="spacing" textLength="50" x="192.5" y="1031.1045">Doctor</text><ellipse cx="220.5" cy="1042.9063" fill="#FFFFFF" rx="8" ry="8" style="stroke:#181818;stroke-width:0.5;"/><path d="M220.5,1050.9063 L220.5,1077.9063 M207.5,1058.9063 L233.5,1058.9063 M220.5,1077.9063 L207.5,1092.9063 M220.5,1077.9063 L233.5,1092.9063 " fill="none" style="stroke:#181818;stroke-width:0.5;"/><rect fill="#E2E2F0" height="30.2969" rx="2.5" ry="2.5" style="stroke:#181818;stroke-width:0.5;" width="47" x="397" y="87.2969"/><text fill="#000000" font-family="sans-serif" font-size="14" lengthAdjust="spacing" textLength="33" x="404" y="107.292">HMO</text><rect fill="#E2E2F0" height="30.2969" rx="2.5" ry="2.5" style="stroke:#181818;stroke-width:0.5;" width="47" x="397" y="1018.1094"/><text fill="#000000" font-family="sans-serif" font-size="14" lengthAdjust="spacing" textLength="33" x="404" y="1038.1045">HMO</text><rect fill="#E2E2F0" height="30.2969" rx="2.5" ry="2.5" style="stroke:#181818;stroke-width:0.5;" width="118" x="454" y="87.2969"/><text fill="#000000" font-family="sans-serif" font-size="14" lengthAdjust="spacing" textLength="104" x="461" y="107.292">Private insurer</text><rect fill="#E2E2F0" height="30.2969" rx="2.5" ry="2.5" style="stroke:#181818;stroke-width:0.5;" width="118" x="454" y="1018.1094"/><text fill="#000000" font-family="sans-serif" font-size="14" lengthAdjust="spacing" textLength="104" x="461" y="1038.1045">Private insurer</text><rect fill="#E2E2F0" height="30.2969" rx="2.5" ry="2.5" style="stroke:#181818;stroke-width:0.5;" width="74" x="582" y="87.2969"/><text fill="#000000" font-family="sans-serif" font-size="14" lengthAdjust="spacing" textLength="60" x="589" y="107.292">Provider</text><rect fill="#E2E2F0" height="30.2969" rx="2.5" ry="2.5" style="stroke:#181818;stroke-width:0.5;" width="74" x="582" y="1018.1094"/><text fill="#000000" font-family="sans-serif" font-size="14" lengthAdjust="spacing" textLength="60" x="589" y="1038.1045">Provider</text><rect fill="#EEEEEE" height="3" style="stroke:#EEEEEE;stroke-width:1.0;" width="661" x="0" y="149.1602"/><line style="stroke:#000000;stroke-width:1.0;" x1="0" x2="661" y1="149.1602" y2="149.1602"/><line style="stroke:#000000;stroke-width:1.0;" x1="0" x2="661" y1="152.1602" y2="152.1602"/><rect fill="#EEEEEE" height="23.1328" style="stroke:#000000;stroke-width:2.0;" width="160" x="250.5" y="138.5938"/><text fill="#000000" font-family="sans-serif" font-size="13" font-weight="bold" lengthAdjust="spacing" textLength="146" x="256.5" y="154.6606">Initial appointment</text><polygon fill="#181818" points="208.5,188.8594,218.5,192.8594,208.5,196.8594,212.5,192.8594" style="stroke:#181818;stroke-width:1.0;"/><line style="stroke:#181818;stroke-width:1.0;" x1="49.5" x2="214.5" y1="192.8594" y2="192.8594"/><text fill="#000000" font-family="sans-serif" font-size="13" lengthAdjust="spacing" textLength="147" x="56.5" y="187.7935">goes for a consultation</text><polygon fill="#181818" points="60.5,233.125,50.5,237.125,60.5,241.125,56.5,237.125" style="stroke:#181818;stroke-width:1.0;"/><line style="stroke:#181818;stroke-width:1.0;" x1="54.5" x2="219.5" y1="237.125" y2="237.125"/><text fill="#000000" font-family="sans-serif" font-size="13" lengthAdjust="spacing" textLength="85" x="66.5" y="216.9263">gives referral</text><text fill="#000000" font-family="sans-serif" font-size="13" font-style="italic" lengthAdjust="spacing" textLength="101" x="66.5" y="232.0591">ServiceRequest</text><rect fill="#EEEEEE" height="3" style="stroke:#EEEEEE;stroke-width:1.0;" width="661" x="0" y="265.6914"/><line style="stroke:#000000;stroke-width:1.0;" x1="0" x2="661" y1="265.6914" y2="265.6914"/><line style="stroke:#000000;stroke-width:1.0;" x1="0" x2="661" y1="268.6914" y2="268.6914"/><rect fill="#EEEEEE" height="23.1328" style="stroke:#000000;stroke-width:2.0;" width="196" x="232.5" y="255.125"/><text fill="#000000" font-family="sans-serif" font-size="13" font-weight="bold" lengthAdjust="spacing" textLength="182" x="238.5" y="271.1919">Appointment scheduling</text><polygon fill="#181818" points="607,320.5234,617,324.5234,607,328.5234,611,324.5234" style="stroke:#181818;stroke-width:1.0;"/><line style="stroke:#181818;stroke-width:1.0;" x1="49.5" x2="613" y1="324.5234" y2="324.5234"/><text fill="#000000" font-family="sans-serif" font-size="13" lengthAdjust="spacing" textLength="365" x="56.5" y="304.3247">check appointment dates (with 1..* providers), can email</text><text fill="#000000" font-family="sans-serif" font-size="13" font-style="italic" lengthAdjust="spacing" textLength="95" x="56.5" y="319.4575">Schedule+Slot</text><polygon fill="#181818" points="60.5,364.7891,50.5,368.7891,60.5,372.7891,56.5,368.7891" style="stroke:#181818;stroke-width:1.0;"/><line style="stroke:#181818;stroke-width:1.0;" x1="54.5" x2="618" y1="368.7891" y2="368.7891"/><text fill="#000000" font-family="sans-serif" font-size="13" lengthAdjust="spacing" textLength="418" x="66.5" y="348.5903">return possible dates (1..* dates), by phone, can take a few days</text><text fill="#000000" font-family="sans-serif" font-size="13" font-style="italic" lengthAdjust="spacing" textLength="95" x="66.5" y="363.7231">Schedule+Slot</text><polygon fill="#181818" points="607,409.0547,617,413.0547,607,417.0547,611,413.0547" style="stroke:#181818;stroke-width:1.0;"/><line style="stroke:#181818;stroke-width:1.0;" x1="49.5" x2="613" y1="413.0547" y2="413.0547"/><text fill="#000000" font-family="sans-serif" font-size="13" lengthAdjust="spacing" textLength="135" x="56.5" y="392.856">request appointment</text><text fill="#000000" font-family="sans-serif" font-size="13" font-style="italic" lengthAdjust="spacing" textLength="84" x="56.5" y="407.9888">Appointment</text><polygon fill="#181818" points="60.5,453.3203,50.5,457.3203,60.5,461.3203,56.5,457.3203" style="stroke:#181818;stroke-width:1.0;"/><line style="stroke:#181818;stroke-width:1.0;" x1="54.5" x2="618" y1="457.3203" y2="457.3203"/><text fill="#000000" font-family="sans-serif" font-size="13" lengthAdjust="spacing" textLength="135" x="66.5" y="437.1216">confirm appointment</text><text fill="#000000" font-family="sans-serif" font-size="13" font-style="italic" lengthAdjust="spacing" textLength="147" x="66.5" y="452.2544">AppointmentResponse</text><rect fill="#EEEEEE" height="3" style="stroke:#EEEEEE;stroke-width:1.0;" width="661" x="0" y="485.8867"/><line style="stroke:#000000;stroke-width:1.0;" x1="0" x2="661" y1="485.8867" y2="485.8867"/><line style="stroke:#000000;stroke-width:1.0;" x1="0" x2="661" y1="488.8867" y2="488.8867"/><rect fill="#EEEEEE" height="23.1328" style="stroke:#000000;stroke-width:2.0;" width="77" x="292" y="475.3203"/><text fill="#000000" font-family="sans-serif" font-size="13" font-weight="bold" lengthAdjust="spacing" textLength="63" x="298" y="491.3872">Form 17</text><polygon fill="#181818" points="408.5,540.7188,418.5,544.7188,408.5,548.7188,412.5,544.7188" style="stroke:#181818;stroke-width:1.0;"/><line style="stroke:#181818;stroke-width:1.0;" x1="49.5" x2="414.5" y1="544.7188" y2="544.7188"/><text fill="#000000" font-family="sans-serif" font-size="13" lengthAdjust="spacing" textLength="193" x="56.5" y="524.52">request form 17 using referral</text><text fill="#000000" font-family="sans-serif" font-size="13" font-style="italic" lengthAdjust="spacing" textLength="183" x="56.5" y="539.6528">Claim.use=preauthorization</text><polygon fill="#181818" points="60.5,584.9844,50.5,588.9844,60.5,592.9844,56.5,588.9844" style="stroke:#181818;stroke-width:1.0;"/><line style="stroke:#181818;stroke-width:1.0;" x1="54.5" x2="419.5" y1="588.9844" y2="588.9844"/><text fill="#000000" font-family="sans-serif" font-size="13" lengthAdjust="spacing" textLength="347" x="66.5" y="568.7856">filled form 17 with all details (such as procedure code)</text><text fill="#000000" font-family="sans-serif" font-size="13" font-style="italic" lengthAdjust="spacing" textLength="101" x="66.5" y="583.9185">ClaimResponse</text><path d="M10,603.9844 L268,603.9844 L268,611.1172 L258,621.1172 L10,621.1172 L10,603.9844 " fill="#EEEEEE" style="stroke:#000000;stroke-width:1.5;"/><rect fill="none" height="105.6641" style="stroke:#000000;stroke-width:1.5;" width="572" x="10" y="603.9844"/><text fill="#000000" font-family="sans-serif" font-size="13" font-weight="bold" lengthAdjust="spacing" textLength="213" x="25" y="617.0513">Alternative - private insurer</text><polygon fill="#181818" points="501,653.3828,511,657.3828,501,661.3828,505,657.3828" style="stroke:#181818;stroke-width:1.0;"/><line style="stroke:#181818;stroke-width:1.0;" x1="49.5" x2="507" y1="657.3828" y2="657.3828"/><text fill="#000000" font-family="sans-serif" font-size="13" lengthAdjust="spacing" textLength="420" x="56.5" y="637.1841">request form 17 using referral to a private insurer instead of HMO</text><text fill="#000000" font-family="sans-serif" font-size="13" font-style="italic" lengthAdjust="spacing" textLength="183" x="56.5" y="652.3169">Claim.use=preauthorization</text><polygon fill="#181818" points="60.5,697.6484,50.5,701.6484,60.5,705.6484,56.5,701.6484" style="stroke:#181818;stroke-width:1.0;"/><line style="stroke:#181818;stroke-width:1.0;" x1="54.5" x2="512" y1="701.6484" y2="701.6484"/><text fill="#000000" font-family="sans-serif" font-size="13" lengthAdjust="spacing" textLength="347" x="66.5" y="681.4497">filled form 17 with all details (such as procedure code)</text><text fill="#000000" font-family="sans-serif" font-size="13" font-style="italic" lengthAdjust="spacing" textLength="101" x="66.5" y="696.5825">ClaimResponse</text><rect fill="#EEEEEE" height="3" style="stroke:#EEEEEE;stroke-width:1.0;" width="661" x="0" y="737.2148"/><line style="stroke:#000000;stroke-width:1.0;" x1="0" x2="661" y1="737.2148" y2="737.2148"/><line style="stroke:#000000;stroke-width:1.0;" x1="0" x2="661" y1="740.2148" y2="740.2148"/><rect fill="#EEEEEE" height="23.1328" style="stroke:#000000;stroke-width:2.0;" width="289" x="186" y="726.6484"/><text fill="#000000" font-family="sans-serif" font-size="13" font-weight="bold" lengthAdjust="spacing" textLength="275" x="192" y="742.7153">Appointment cancellation (optional)</text><polygon fill="#181818" points="607,792.0469,617,796.0469,607,800.0469,611,796.0469" style="stroke:#181818;stroke-width:1.0;"/><line style="stroke:#181818;stroke-width:1.0;" x1="49.5" x2="613" y1="796.0469" y2="796.0469"/><text fill="#000000" font-family="sans-serif" font-size="13" lengthAdjust="spacing" textLength="203" x="56.5" y="775.8481">notify appointment cancellation</text><text fill="#000000" font-family="sans-serif" font-size="13" font-style="italic" lengthAdjust="spacing" textLength="84" x="56.5" y="790.981">Appointment</text><polygon fill="#181818" points="60.5,836.3125,50.5,840.3125,60.5,844.3125,56.5,840.3125" style="stroke:#181818;stroke-width:1.0;"/><line style="stroke:#181818;stroke-width:1.0;" x1="54.5" x2="618" y1="840.3125" y2="840.3125"/><text fill="#000000" font-family="sans-serif" font-size="13" lengthAdjust="spacing" textLength="215" x="66.5" y="820.1138">confirm appointment cancellation</text><text fill="#000000" font-family="sans-serif" font-size="13" font-style="italic" lengthAdjust="spacing" textLength="84" x="66.5" y="835.2466">Appointment</text><rect fill="#EEEEEE" height="3" style="stroke:#EEEEEE;stroke-width:1.0;" width="661" x="0" y="868.8789"/><line style="stroke:#000000;stroke-width:1.0;" x1="0" x2="661" y1="868.8789" y2="868.8789"/><line style="stroke:#000000;stroke-width:1.0;" x1="0" x2="661" y1="871.8789" y2="871.8789"/><rect fill="#EEEEEE" height="23.1328" style="stroke:#000000;stroke-width:2.0;" width="147" x="257" y="858.3125"/><text fill="#000000" font-family="sans-serif" font-size="13" font-weight="bold" lengthAdjust="spacing" textLength="133" x="263" y="874.3794">Procedure report</text><line style="stroke:#181818;stroke-width:1.0;" x1="617" x2="607" y1="912.5781" y2="908.5781"/><line style="stroke:#181818;stroke-width:1.0;" x1="617" x2="607" y1="912.5781" y2="916.5781"/><line style="stroke:#181818;stroke-width:1.0;stroke-dasharray:2.0,2.0;" x1="49.5" x2="618" y1="912.5781" y2="912.5781"/><text fill="#000000" font-family="sans-serif" font-size="13" font-style="italic" lengthAdjust="spacing" textLength="151" x="56.5" y="907.5122">get the procedure done</text><polygon fill="#181818" points="231.5,952.8438,221.5,956.8438,231.5,960.8438,227.5,956.8438" style="stroke:#181818;stroke-width:1.0;"/><line style="stroke:#181818;stroke-width:1.0;" x1="225.5" x2="618" y1="956.8438" y2="956.8438"/><text fill="#000000" font-family="sans-serif" font-size="13" lengthAdjust="spacing" textLength="304" x="237.5" y="936.645">send report (if provider and HMO are the same)</text><text fill="#000000" font-family="sans-serif" font-size="13" font-style="italic" lengthAdjust="spacing" textLength="181" x="237.5" y="951.7778">Procedure/DiagnosticReport</text><polygon fill="#181818" points="60.5,997.1094,50.5,1001.1094,60.5,1005.1094,56.5,1001.1094" style="stroke:#181818;stroke-width:1.0;"/><line style="stroke:#181818;stroke-width:1.0;" x1="54.5" x2="618" y1="1001.1094" y2="1001.1094"/><text fill="#000000" font-family="sans-serif" font-size="13" lengthAdjust="spacing" textLength="298" x="66.5" y="980.9106">send report (if provider and HMO are different)</text><text fill="#000000" font-family="sans-serif" font-size="13" font-style="italic" lengthAdjust="spacing" textLength="181" x="66.5" y="996.0435">Procedure/DiagnosticReport</text><!--MD5=[2075833121c97314768d89b1393e4b01]
@startuml
'see documentation at https://plantuml.com/sequence-diagram

title "MRI Scheduling"

actor Patient
actor Doctor #white
participant HMO
participant "Private insurer"
participant Provider

== Initial appointment==
Patient -> Doctor: goes for a consultation
Doctor -> Patient: gives referral\n//ServiceRequest//

== Appointment scheduling==
Patient -> Provider: check appointment dates (with 1..* providers), can email\n//Schedule+Slot//
Provider -> Patient: return possible dates (1..* dates), by phone, can take a few days\n//Schedule+Slot//
Patient -> Provider: request appointment\n//Appointment//
Provider -> Patient: confirm appointment\n//AppointmentResponse//

== Form 17==
Patient -> HMO: request form 17 using referral\n//Claim.use=preauthorization//
HMO -> Patient: filled form 17 with all details (such as procedure code)\n//ClaimResponse//

Group Alternative - private insurer
Patient -> "Private insurer": request form 17 using referral to a private insurer instead of HMO\n//Claim.use=preauthorization//
"Private insurer" -> Patient: filled form 17 with all details (such as procedure code)\n//ClaimResponse//
end

== Appointment cancellation (optional)==
Patient -> Provider: notify appointment cancellation\n//Appointment//
Provider -> Patient: confirm appointment cancellation\n//Appointment//

== Procedure report==
Patient - ->> Provider: //get the procedure done//
Provider -> Doctor: send report (if provider and HMO are the same)\n//Procedure/DiagnosticReport//
Provider -> Patient: send report (if provider and HMO are different)\n//Procedure/DiagnosticReport//
@enduml

@startuml

title "MRI Scheduling"

actor Patient
actor Doctor #white
participant HMO
participant "Private insurer"
participant Provider

== Initial appointment==
Patient -> Doctor: goes for a consultation
Doctor -> Patient: gives referral\n//ServiceRequest//

== Appointment scheduling==
Patient -> Provider: check appointment dates (with 1..* providers), can email\n//Schedule+Slot//
Provider -> Patient: return possible dates (1..* dates), by phone, can take a few days\n//Schedule+Slot//
Patient -> Provider: request appointment\n//Appointment//
Provider -> Patient: confirm appointment\n//AppointmentResponse//

== Form 17==
Patient -> HMO: request form 17 using referral\n//Claim.use=preauthorization//
HMO -> Patient: filled form 17 with all details (such as procedure code)\n//ClaimResponse//

Group Alternative - private insurer
Patient -> "Private insurer": request form 17 using referral to a private insurer instead of HMO\n//Claim.use=preauthorization//
"Private insurer" -> Patient: filled form 17 with all details (such as procedure code)\n//ClaimResponse//
end

== Appointment cancellation (optional)==
Patient -> Provider: notify appointment cancellation\n//Appointment//
Provider -> Patient: confirm appointment cancellation\n//Appointment//

== Procedure report==
Patient - ->> Provider: //get the procedure done//
Provider -> Doctor: send report (if provider and HMO are the same)\n//Procedure/DiagnosticReport//
Provider -> Patient: send report (if provider and HMO are different)\n//Procedure/DiagnosticReport//
@enduml

PlantUML version 1.2022.13beta5(Unknown compile time)
(GPL source distribution)
Java Runtime: Java(TM) SE Runtime Environment
JVM: Java HotSpot(TM) 64-Bit Server VM
Default Encoding: UTF-8
Language: en
Country: US
--></g></svg>